<svg xmlns="http://www.w3.org/2000/svg" viewBox="0 0 48 48">
  <defs>
    <linearGradient id="g" x1="8" x2="40" y1="6" y2="42">
      <stop offset="0" stop-color="#14b8a6"/>
      <stop offset="1" stop-color="#2563eb"/>
    </linearGradient>
  </defs>
  <rect width="48" height="48" rx="12" fill="#f8fafc"/>
  <path d="M15 6h14.5L39 15.5V39a3 3 0 0 1-3 3H15a6 6 0 0 1-6-6V12a6 6 0 0 1 6-6Z" fill="url(#g)"/>
  <path d="M29 6v9a2 2 0 0 0 2 2h8" fill="none" stroke="rgba(255,255,255,.72)" stroke-width="2" stroke-linecap="round" stroke-linejoin="round"/>
  <path d="M17 17h7.5a7.5 7.5 0 0 1 0 15H17V17Zm5 5v5h2.5a2.5 2.5 0 0 0 0-5H22Z" fill="#fff"/>
  <path d="M33.5 25.5 35 29l3.5 1.5L35 32l-1.5 3.5L32 32l-3.5-1.5L32 29l1.5-3.5Z" fill="#bef264"/>
</svg>
